<mxfile host="app.diagrams.net" agent="Mozilla/5.0 (Windows NT 10.0; Win64; x64) AppleWebKit/537.36 (KHTML, like Gecko) Chrome/134.0.0.0 Safari/537.36 Edg/134.0.0.0" version="26.1.0">
  <diagram name="Página-1" id="LvDKaR3x03JNAOJbu2ng">
    <mxGraphModel dx="1295" dy="1293" grid="1" gridSize="10" guides="1" tooltips="1" connect="1" arrows="1" fold="1" page="1" pageScale="1" pageWidth="827" pageHeight="1169" math="0" shadow="0">
      <root>
        <mxCell id="0" />
        <mxCell id="1" parent="0" />
        <mxCell id="uO52-fIusSebnsXsC91t-1" value="&lt;b&gt;&lt;u&gt;CC&lt;/u&gt;&lt;/b&gt;" style="rounded=0;whiteSpace=wrap;html=1;" parent="1" vertex="1">
          <mxGeometry x="120" y="160" width="120" height="40" as="geometry" />
        </mxCell>
        <mxCell id="uO52-fIusSebnsXsC91t-2" value="Pessoa" style="text;html=1;align=center;verticalAlign=middle;resizable=0;points=[];autosize=1;strokeColor=none;fillColor=none;" parent="1" vertex="1">
          <mxGeometry x="115" y="130" width="60" height="30" as="geometry" />
        </mxCell>
        <mxCell id="uO52-fIusSebnsXsC91t-3" value="nome" style="rounded=0;whiteSpace=wrap;html=1;" parent="1" vertex="1">
          <mxGeometry x="240" y="160" width="120" height="40" as="geometry" />
        </mxCell>
        <mxCell id="wK09vMMY8XHoyK0epdqR-1" value="lista_auth" style="rounded=0;whiteSpace=wrap;html=1;" vertex="1" parent="1">
          <mxGeometry x="240" y="400" width="120" height="40" as="geometry" />
        </mxCell>
        <mxCell id="wK09vMMY8XHoyK0epdqR-2" value="aluno" style="text;html=1;align=center;verticalAlign=middle;resizable=0;points=[];autosize=1;strokeColor=none;fillColor=none;" vertex="1" parent="1">
          <mxGeometry x="120" y="370" width="50" height="30" as="geometry" />
        </mxCell>
        <mxCell id="wK09vMMY8XHoyK0epdqR-3" value="EncDeEduc_email" style="rounded=0;whiteSpace=wrap;html=1;" vertex="1" parent="1">
          <mxGeometry x="360" y="400" width="120" height="40" as="geometry" />
        </mxCell>
        <mxCell id="wK09vMMY8XHoyK0epdqR-4" value="&lt;u&gt;&lt;b&gt;email&lt;/b&gt;&lt;/u&gt;" style="rounded=0;whiteSpace=wrap;html=1;" vertex="1" parent="1">
          <mxGeometry x="240" y="520" width="120" height="40" as="geometry" />
        </mxCell>
        <mxCell id="wK09vMMY8XHoyK0epdqR-5" value="professor" style="text;html=1;align=center;verticalAlign=middle;resizable=0;points=[];autosize=1;strokeColor=none;fillColor=none;" vertex="1" parent="1">
          <mxGeometry x="120" y="490" width="70" height="30" as="geometry" />
        </mxCell>
        <mxCell id="wK09vMMY8XHoyK0epdqR-6" value="contacto telefonico" style="rounded=0;whiteSpace=wrap;html=1;" vertex="1" parent="1">
          <mxGeometry x="360" y="520" width="120" height="40" as="geometry" />
        </mxCell>
        <mxCell id="wK09vMMY8XHoyK0epdqR-7" value="&lt;b&gt;&lt;u&gt;email&lt;/u&gt;&lt;/b&gt;" style="rounded=0;whiteSpace=wrap;html=1;" vertex="1" parent="1">
          <mxGeometry x="240" y="640" width="120" height="40" as="geometry" />
        </mxCell>
        <mxCell id="wK09vMMY8XHoyK0epdqR-8" value="encarregado de educação" style="text;html=1;align=center;verticalAlign=middle;resizable=0;points=[];autosize=1;strokeColor=none;fillColor=none;" vertex="1" parent="1">
          <mxGeometry x="120" y="610" width="160" height="30" as="geometry" />
        </mxCell>
        <mxCell id="wK09vMMY8XHoyK0epdqR-9" value="contacto telefonico" style="rounded=0;whiteSpace=wrap;html=1;" vertex="1" parent="1">
          <mxGeometry x="360" y="640" width="120" height="40" as="geometry" />
        </mxCell>
        <mxCell id="wK09vMMY8XHoyK0epdqR-10" value="&lt;b&gt;&lt;u&gt;identificador&lt;/u&gt;&lt;/b&gt;" style="rounded=0;whiteSpace=wrap;html=1;" vertex="1" parent="1">
          <mxGeometry x="120" y="760" width="120" height="40" as="geometry" />
        </mxCell>
        <mxCell id="wK09vMMY8XHoyK0epdqR-11" value="turma" style="text;html=1;align=center;verticalAlign=middle;resizable=0;points=[];autosize=1;strokeColor=none;fillColor=none;" vertex="1" parent="1">
          <mxGeometry x="120" y="730" width="50" height="30" as="geometry" />
        </mxCell>
        <mxCell id="wK09vMMY8XHoyK0epdqR-12" value="professor" style="rounded=0;whiteSpace=wrap;html=1;" vertex="1" parent="1">
          <mxGeometry x="240" y="760" width="120" height="40" as="geometry" />
        </mxCell>
        <mxCell id="wK09vMMY8XHoyK0epdqR-14" value="atividade" style="text;html=1;align=center;verticalAlign=middle;resizable=0;points=[];autosize=1;strokeColor=none;fillColor=none;" vertex="1" parent="1">
          <mxGeometry x="780" y="440" width="70" height="30" as="geometry" />
        </mxCell>
        <mxCell id="wK09vMMY8XHoyK0epdqR-15" value="custo" style="rounded=0;whiteSpace=wrap;html=1;" vertex="1" parent="1">
          <mxGeometry x="1020" y="470" width="120" height="40" as="geometry" />
        </mxCell>
        <mxCell id="wK09vMMY8XHoyK0epdqR-16" value="morada" style="rounded=0;whiteSpace=wrap;html=1;" vertex="1" parent="1">
          <mxGeometry x="480" y="160" width="120" height="40" as="geometry" />
        </mxCell>
        <mxCell id="wK09vMMY8XHoyK0epdqR-17" value="dataNasc" style="rounded=0;whiteSpace=wrap;html=1;" vertex="1" parent="1">
          <mxGeometry x="360" y="160" width="120" height="40" as="geometry" />
        </mxCell>
        <mxCell id="wK09vMMY8XHoyK0epdqR-18" value="&lt;u&gt;&lt;b&gt;autorização&lt;/b&gt;&lt;/u&gt;" style="rounded=0;whiteSpace=wrap;html=1;" vertex="1" parent="1">
          <mxGeometry x="414" y="270" width="120" height="40" as="geometry" />
        </mxCell>
        <mxCell id="wK09vMMY8XHoyK0epdqR-19" value="lista de pessoas" style="text;html=1;align=center;verticalAlign=middle;resizable=0;points=[];autosize=1;strokeColor=none;fillColor=none;" vertex="1" parent="1">
          <mxGeometry x="414" y="240" width="110" height="30" as="geometry" />
        </mxCell>
        <mxCell id="wK09vMMY8XHoyK0epdqR-21" value="lista_auth" style="rounded=0;whiteSpace=wrap;html=1;" vertex="1" parent="1">
          <mxGeometry x="600" y="160" width="120" height="40" as="geometry" />
        </mxCell>
        <mxCell id="wK09vMMY8XHoyK0epdqR-22" value="" style="endArrow=classic;html=1;rounded=0;" edge="1" parent="1" source="wK09vMMY8XHoyK0epdqR-21" target="wK09vMMY8XHoyK0epdqR-18">
          <mxGeometry width="50" height="50" relative="1" as="geometry">
            <mxPoint x="420" y="270" as="sourcePoint" />
            <mxPoint x="370" y="320" as="targetPoint" />
            <Array as="points">
              <mxPoint x="660" y="240" />
              <mxPoint x="470" y="240" />
            </Array>
          </mxGeometry>
        </mxCell>
        <mxCell id="wK09vMMY8XHoyK0epdqR-23" value="" style="endArrow=classic;html=1;rounded=0;" edge="1" parent="1" source="wK09vMMY8XHoyK0epdqR-1" target="wK09vMMY8XHoyK0epdqR-18">
          <mxGeometry width="50" height="50" relative="1" as="geometry">
            <mxPoint x="340" y="480" as="sourcePoint" />
            <mxPoint x="390" y="430" as="targetPoint" />
          </mxGeometry>
        </mxCell>
        <mxCell id="wK09vMMY8XHoyK0epdqR-24" value="FK" style="text;html=1;align=center;verticalAlign=middle;resizable=0;points=[];autosize=1;strokeColor=none;fillColor=none;" vertex="1" parent="1">
          <mxGeometry x="330" y="390" width="40" height="30" as="geometry" />
        </mxCell>
        <mxCell id="wK09vMMY8XHoyK0epdqR-25" value="FK" style="text;html=1;align=center;verticalAlign=middle;resizable=0;points=[];autosize=1;strokeColor=none;fillColor=none;" vertex="1" parent="1">
          <mxGeometry x="690" y="160" width="40" height="30" as="geometry" />
        </mxCell>
        <mxCell id="wK09vMMY8XHoyK0epdqR-26" value="nº de funcionario" style="rounded=0;whiteSpace=wrap;html=1;" vertex="1" parent="1">
          <mxGeometry x="480" y="520" width="120" height="40" as="geometry" />
        </mxCell>
        <mxCell id="wK09vMMY8XHoyK0epdqR-27" value="designação&lt;span style=&quot;color: rgba(0, 0, 0, 0); font-family: monospace; font-size: 0px; text-align: start; text-wrap-mode: nowrap;&quot;&gt;%3CmxGraphModel%3E%3Croot%3E%3CmxCell%20id%3D%220%22%2F%3E%3CmxCell%20id%3D%221%22%20parent%3D%220%22%2F%3E%3CmxCell%20id%3D%222%22%20value%3D%22xx%22%20style%3D%22rounded%3D0%3BwhiteSpace%3Dwrap%3Bhtml%3D1%3B%22%20vertex%3D%221%22%20parent%3D%221%22%3E%3CmxGeometry%20x%3D%22240%22%20y%3D%22880%22%20width%3D%22120%22%20height%3D%2240%22%20as%3D%22geometry%22%2F%3E%3C%2FmxCell%3E%3C%2Froot%3E%3C%2FmxGraphModel%3E&lt;/span&gt;" style="rounded=0;whiteSpace=wrap;html=1;" vertex="1" parent="1">
          <mxGeometry x="480" y="760" width="120" height="40" as="geometry" />
        </mxCell>
        <mxCell id="wK09vMMY8XHoyK0epdqR-28" value="ano letivo" style="rounded=0;whiteSpace=wrap;html=1;" vertex="1" parent="1">
          <mxGeometry x="360" y="760" width="120" height="40" as="geometry" />
        </mxCell>
        <mxCell id="wK09vMMY8XHoyK0epdqR-29" value="nº max de alunos" style="rounded=0;whiteSpace=wrap;html=1;" vertex="1" parent="1">
          <mxGeometry x="600" y="760" width="120" height="40" as="geometry" />
        </mxCell>
        <mxCell id="wK09vMMY8XHoyK0epdqR-30" value="&lt;b&gt;&lt;u&gt;identificador&lt;/u&gt;&lt;/b&gt;" style="rounded=0;whiteSpace=wrap;html=1;" vertex="1" parent="1">
          <mxGeometry x="780" y="470" width="120" height="40" as="geometry" />
        </mxCell>
        <mxCell id="wK09vMMY8XHoyK0epdqR-31" value="designação&lt;span style=&quot;color: rgba(0, 0, 0, 0); font-family: monospace; font-size: 0px; text-align: start; text-wrap-mode: nowrap;&quot;&gt;%3CmxGraphModel%3E%3Croot%3E%3CmxCell%20id%3D%220%22%2F%3E%3CmxCell%20id%3D%221%22%20parent%3D%220%22%2F%3E%3CmxCell%20id%3D%222%22%20value%3D%22xx%22%20style%3D%22rounded%3D0%3BwhiteSpace%3Dwrap%3Bhtml%3D1%3B%22%20vertex%3D%221%22%20parent%3D%221%22%3E%3CmxGeometry%20x%3D%22240%22%20y%3D%22880%22%20width%3D%22120%22%20height%3D%2240%22%20as%3D%22geometry%22%2F%3E%3C%2FmxCell%3E%3C%2Froot%3E%3C%2FmxGraphModel%3E&lt;/span&gt;" style="rounded=0;whiteSpace=wrap;html=1;" vertex="1" parent="1">
          <mxGeometry x="900" y="470" width="120" height="40" as="geometry" />
        </mxCell>
        <mxCell id="wK09vMMY8XHoyK0epdqR-32" value="" style="endArrow=classic;html=1;rounded=0;" edge="1" parent="1" source="wK09vMMY8XHoyK0epdqR-7" target="wK09vMMY8XHoyK0epdqR-3">
          <mxGeometry width="50" height="50" relative="1" as="geometry">
            <mxPoint x="340" y="480" as="sourcePoint" />
            <mxPoint x="390" y="430" as="targetPoint" />
            <Array as="points">
              <mxPoint x="300" y="610" />
              <mxPoint x="620" y="610" />
              <mxPoint x="620" y="480" />
              <mxPoint x="420" y="480" />
            </Array>
          </mxGeometry>
        </mxCell>
        <mxCell id="wK09vMMY8XHoyK0epdqR-33" value="FK" style="text;html=1;align=center;verticalAlign=middle;resizable=0;points=[];autosize=1;strokeColor=none;fillColor=none;" vertex="1" parent="1">
          <mxGeometry x="449" y="390" width="40" height="30" as="geometry" />
        </mxCell>
        <mxCell id="wK09vMMY8XHoyK0epdqR-34" value="&lt;b&gt;&lt;u&gt;Pessoa_CC&lt;/u&gt;&lt;/b&gt;" style="rounded=0;whiteSpace=wrap;html=1;" vertex="1" parent="1">
          <mxGeometry x="120" y="400" width="120" height="40" as="geometry" />
        </mxCell>
        <mxCell id="wK09vMMY8XHoyK0epdqR-35" value="&lt;b&gt;&lt;u&gt;Pessoa_CC&lt;/u&gt;&lt;/b&gt;" style="rounded=0;whiteSpace=wrap;html=1;" vertex="1" parent="1">
          <mxGeometry x="120" y="520" width="120" height="40" as="geometry" />
        </mxCell>
        <mxCell id="wK09vMMY8XHoyK0epdqR-36" value="&lt;b&gt;&lt;u&gt;Pessoa_CC&lt;/u&gt;&lt;/b&gt;" style="rounded=0;whiteSpace=wrap;html=1;" vertex="1" parent="1">
          <mxGeometry x="120" y="640" width="120" height="40" as="geometry" />
        </mxCell>
        <mxCell id="wK09vMMY8XHoyK0epdqR-37" value="" style="endArrow=classic;html=1;rounded=0;" edge="1" parent="1" source="wK09vMMY8XHoyK0epdqR-34" target="uO52-fIusSebnsXsC91t-1">
          <mxGeometry width="50" height="50" relative="1" as="geometry">
            <mxPoint x="340" y="480" as="sourcePoint" />
            <mxPoint x="390" y="430" as="targetPoint" />
          </mxGeometry>
        </mxCell>
        <mxCell id="wK09vMMY8XHoyK0epdqR-38" value="" style="endArrow=classic;html=1;rounded=0;" edge="1" parent="1" source="wK09vMMY8XHoyK0epdqR-35" target="uO52-fIusSebnsXsC91t-1">
          <mxGeometry width="50" height="50" relative="1" as="geometry">
            <mxPoint x="115" y="510" as="sourcePoint" />
            <mxPoint x="115" y="190" as="targetPoint" />
            <Array as="points">
              <mxPoint x="100" y="540" />
              <mxPoint x="100" y="230" />
            </Array>
          </mxGeometry>
        </mxCell>
        <mxCell id="wK09vMMY8XHoyK0epdqR-39" value="" style="endArrow=classic;html=1;rounded=0;" edge="1" parent="1" source="wK09vMMY8XHoyK0epdqR-36" target="uO52-fIusSebnsXsC91t-1">
          <mxGeometry width="50" height="50" relative="1" as="geometry">
            <mxPoint x="100" y="675" as="sourcePoint" />
            <mxPoint x="128" y="335" as="targetPoint" />
            <Array as="points">
              <mxPoint x="80" y="660" />
              <mxPoint x="80" y="180" />
            </Array>
          </mxGeometry>
        </mxCell>
        <mxCell id="wK09vMMY8XHoyK0epdqR-40" value="turma_id" style="rounded=0;whiteSpace=wrap;html=1;" vertex="1" parent="1">
          <mxGeometry x="480" y="400" width="120" height="40" as="geometry" />
        </mxCell>
        <mxCell id="wK09vMMY8XHoyK0epdqR-41" value="FK" style="text;html=1;align=center;verticalAlign=middle;resizable=0;points=[];autosize=1;strokeColor=none;fillColor=none;" vertex="1" parent="1">
          <mxGeometry x="570" y="390" width="40" height="30" as="geometry" />
        </mxCell>
        <mxCell id="wK09vMMY8XHoyK0epdqR-42" value="FK" style="text;html=1;align=center;verticalAlign=middle;resizable=0;points=[];autosize=1;strokeColor=none;fillColor=none;" vertex="1" parent="1">
          <mxGeometry x="210" y="390" width="40" height="30" as="geometry" />
        </mxCell>
        <mxCell id="wK09vMMY8XHoyK0epdqR-43" value="FK" style="text;html=1;align=center;verticalAlign=middle;resizable=0;points=[];autosize=1;strokeColor=none;fillColor=none;" vertex="1" parent="1">
          <mxGeometry x="210" y="510" width="40" height="30" as="geometry" />
        </mxCell>
        <mxCell id="wK09vMMY8XHoyK0epdqR-44" value="FK" style="text;html=1;align=center;verticalAlign=middle;resizable=0;points=[];autosize=1;strokeColor=none;fillColor=none;" vertex="1" parent="1">
          <mxGeometry x="210" y="630" width="40" height="30" as="geometry" />
        </mxCell>
        <mxCell id="wK09vMMY8XHoyK0epdqR-45" value="" style="endArrow=classic;html=1;rounded=0;" edge="1" parent="1" source="wK09vMMY8XHoyK0epdqR-40" target="wK09vMMY8XHoyK0epdqR-10">
          <mxGeometry width="50" height="50" relative="1" as="geometry">
            <mxPoint x="310" y="540" as="sourcePoint" />
            <mxPoint x="360" y="490" as="targetPoint" />
            <Array as="points">
              <mxPoint x="630" y="420" />
              <mxPoint x="630" y="720" />
              <mxPoint x="180" y="720" />
            </Array>
          </mxGeometry>
        </mxCell>
        <mxCell id="wK09vMMY8XHoyK0epdqR-47" value="frequenta" style="text;html=1;align=center;verticalAlign=middle;resizable=0;points=[];autosize=1;strokeColor=none;fillColor=none;" vertex="1" parent="1">
          <mxGeometry x="780" y="340" width="70" height="30" as="geometry" />
        </mxCell>
        <mxCell id="wK09vMMY8XHoyK0epdqR-48" value="&lt;b&gt;&lt;u&gt;Pessoa_CC&lt;/u&gt;&lt;/b&gt;" style="rounded=0;whiteSpace=wrap;html=1;" vertex="1" parent="1">
          <mxGeometry x="780" y="370" width="120" height="40" as="geometry" />
        </mxCell>
        <mxCell id="wK09vMMY8XHoyK0epdqR-49" value="&lt;u&gt;&lt;b&gt;atividade_id&lt;/b&gt;&lt;/u&gt;" style="rounded=0;whiteSpace=wrap;html=1;" vertex="1" parent="1">
          <mxGeometry x="900" y="370" width="120" height="40" as="geometry" />
        </mxCell>
        <mxCell id="wK09vMMY8XHoyK0epdqR-50" value="" style="endArrow=classic;html=1;rounded=0;" edge="1" parent="1" source="wK09vMMY8XHoyK0epdqR-48" target="wK09vMMY8XHoyK0epdqR-34">
          <mxGeometry width="50" height="50" relative="1" as="geometry">
            <mxPoint x="670" y="500" as="sourcePoint" />
            <mxPoint x="720" y="450" as="targetPoint" />
            <Array as="points">
              <mxPoint x="220" y="380" />
            </Array>
          </mxGeometry>
        </mxCell>
        <mxCell id="wK09vMMY8XHoyK0epdqR-51" value="" style="endArrow=classic;html=1;rounded=0;" edge="1" parent="1" source="wK09vMMY8XHoyK0epdqR-49" target="wK09vMMY8XHoyK0epdqR-30">
          <mxGeometry width="50" height="50" relative="1" as="geometry">
            <mxPoint x="670" y="500" as="sourcePoint" />
            <mxPoint x="720" y="450" as="targetPoint" />
          </mxGeometry>
        </mxCell>
        <mxCell id="wK09vMMY8XHoyK0epdqR-52" value="prof_email" style="rounded=0;whiteSpace=wrap;html=1;" vertex="1" parent="1">
          <mxGeometry x="720" y="760" width="120" height="40" as="geometry" />
        </mxCell>
        <mxCell id="wK09vMMY8XHoyK0epdqR-53" value="FK" style="text;html=1;align=center;verticalAlign=middle;resizable=0;points=[];autosize=1;strokeColor=none;fillColor=none;" vertex="1" parent="1">
          <mxGeometry x="810" y="760" width="40" height="30" as="geometry" />
        </mxCell>
        <mxCell id="wK09vMMY8XHoyK0epdqR-54" value="FK" style="text;html=1;align=center;verticalAlign=middle;resizable=0;points=[];autosize=1;strokeColor=none;fillColor=none;" vertex="1" parent="1">
          <mxGeometry x="870" y="370" width="40" height="30" as="geometry" />
        </mxCell>
        <mxCell id="wK09vMMY8XHoyK0epdqR-55" value="FK" style="text;html=1;align=center;verticalAlign=middle;resizable=0;points=[];autosize=1;strokeColor=none;fillColor=none;" vertex="1" parent="1">
          <mxGeometry x="990" y="370" width="40" height="30" as="geometry" />
        </mxCell>
        <mxCell id="wK09vMMY8XHoyK0epdqR-56" value="" style="endArrow=classic;html=1;rounded=0;" edge="1" parent="1" source="wK09vMMY8XHoyK0epdqR-52" target="wK09vMMY8XHoyK0epdqR-4">
          <mxGeometry width="50" height="50" relative="1" as="geometry">
            <mxPoint x="670" y="500" as="sourcePoint" />
            <mxPoint x="720" y="450" as="targetPoint" />
            <Array as="points">
              <mxPoint x="780" y="600" />
              <mxPoint x="300" y="590" />
            </Array>
          </mxGeometry>
        </mxCell>
        <mxCell id="wK09vMMY8XHoyK0epdqR-57" value="faz" style="text;html=1;align=center;verticalAlign=middle;resizable=0;points=[];autosize=1;strokeColor=none;fillColor=none;" vertex="1" parent="1">
          <mxGeometry x="875" y="610" width="40" height="30" as="geometry" />
        </mxCell>
        <mxCell id="wK09vMMY8XHoyK0epdqR-58" value="&lt;b&gt;&lt;u&gt;Turma_id&lt;/u&gt;&lt;/b&gt;" style="rounded=0;whiteSpace=wrap;html=1;" vertex="1" parent="1">
          <mxGeometry x="860" y="640" width="120" height="40" as="geometry" />
        </mxCell>
        <mxCell id="wK09vMMY8XHoyK0epdqR-59" value="&lt;u&gt;&lt;b&gt;atividade_id&lt;/b&gt;&lt;/u&gt;" style="rounded=0;whiteSpace=wrap;html=1;" vertex="1" parent="1">
          <mxGeometry x="980" y="640" width="120" height="40" as="geometry" />
        </mxCell>
        <mxCell id="wK09vMMY8XHoyK0epdqR-60" value="FK" style="text;html=1;align=center;verticalAlign=middle;resizable=0;points=[];autosize=1;strokeColor=none;fillColor=none;" vertex="1" parent="1">
          <mxGeometry x="950" y="640" width="40" height="30" as="geometry" />
        </mxCell>
        <mxCell id="wK09vMMY8XHoyK0epdqR-61" value="FK" style="text;html=1;align=center;verticalAlign=middle;resizable=0;points=[];autosize=1;strokeColor=none;fillColor=none;" vertex="1" parent="1">
          <mxGeometry x="1070" y="640" width="40" height="30" as="geometry" />
        </mxCell>
        <mxCell id="wK09vMMY8XHoyK0epdqR-62" value="" style="endArrow=classic;html=1;rounded=0;" edge="1" parent="1" source="wK09vMMY8XHoyK0epdqR-59" target="wK09vMMY8XHoyK0epdqR-30">
          <mxGeometry width="50" height="50" relative="1" as="geometry">
            <mxPoint x="670" y="500" as="sourcePoint" />
            <mxPoint x="720" y="450" as="targetPoint" />
          </mxGeometry>
        </mxCell>
        <mxCell id="wK09vMMY8XHoyK0epdqR-68" value="" style="endArrow=classic;html=1;rounded=0;" edge="1" parent="1" source="wK09vMMY8XHoyK0epdqR-58" target="wK09vMMY8XHoyK0epdqR-10">
          <mxGeometry width="50" height="50" relative="1" as="geometry">
            <mxPoint x="1026" y="650" as="sourcePoint" />
            <mxPoint x="874" y="520" as="targetPoint" />
            <Array as="points">
              <mxPoint x="920" y="840" />
              <mxPoint x="180" y="840" />
            </Array>
          </mxGeometry>
        </mxCell>
      </root>
    </mxGraphModel>
  </diagram>
</mxfile>
